<svg xmlns="http://www.w3.org/2000/svg" width="768" height="1536" viewBox="0 0 768 1536">
  <rect width="768" height="1536" fill="#090B0A"/>
  <rect x="28" y="22" width="712" height="1492" rx="68" fill="#0A0C0B" stroke="#343936" stroke-width="4"/>
  <rect x="282" y="44" width="204" height="42" rx="21" fill="#050606"/>
  <text x="74" y="142" fill="#F1EEE7" font-family="Arial, sans-serif" font-size="34" font-weight="900" text-anchor="start">FORGE</text><circle cx="199" cy="132" r="7" fill="#FF5A2F"/><text x="74" y="196" fill="#F1EEE7" font-family="Arial, sans-serif" font-size="30" font-weight="800" text-anchor="start">5 findings ready for review</text><text x="74" y="225" fill="#A3A7A3" font-family="Arial, sans-serif" font-size="13" font-weight="500" text-anchor="start">JOB 02841 · survey captured 10:24</text><rect x="515" y="170" width="155" height="30" rx="15" fill="#FF5A2F" stroke="rgba(241,238,231,.08)"/><text x="592.5" y="190" fill="#0A0C0B" font-family="Arial, sans-serif" font-size="11" font-weight="700" text-anchor="middle">HUMAN REVIEW</text><rect x="66" y="270" width="636" height="166" rx="16" fill="#151817" stroke="rgba(241,238,231,.10)"/><circle cx="102" cy="308" r="18" fill="#FF5A2F"/><text x="102" y="314" fill="#0A0C0B" font-family="Arial, sans-serif" font-size="12" font-weight="900" text-anchor="middle">1</text><text x="136" y="312" fill="#F1EEE7" font-family="Arial, sans-serif" font-size="17" font-weight="800" text-anchor="start">Damaged flashing</text><text x="136" y="340" fill="#A3A7A3" font-family="Arial, sans-serif" font-size="11" font-weight="500" text-anchor="start">Rear roof · lead flashing split and lifting</text><rect x="136" y="370" width="118" height="40" rx="8" fill="rgba(255,90,47,.12)" stroke="rgba(255,90,47,.38)"/><text x="195" y="396" fill="#FF9A7A" font-family="Arial, sans-serif" font-size="11" font-weight="800" text-anchor="middle">APPROVE</text><rect x="266" y="370" width="96" height="40" rx="8" fill="#101211" stroke="rgba(241,238,231,.10)"/><text x="314" y="396" fill="#F1EEE7" font-family="Arial, sans-serif" font-size="11" font-weight="700" text-anchor="middle">EDIT</text><rect x="374" y="370" width="110" height="40" rx="8" fill="rgba(217,80,80,.10)" stroke="rgba(217,80,80,.30)"/><text x="429" y="396" fill="#FF9A9A" font-family="Arial, sans-serif" font-size="11" font-weight="700" text-anchor="middle">REMOVE</text><rect x="66" y="460" width="636" height="166" rx="16" fill="#151817" stroke="rgba(241,238,231,.10)"/><circle cx="102" cy="498" r="18" fill="#FF5A2F"/><text x="102" y="504" fill="#0A0C0B" font-family="Arial, sans-serif" font-size="12" font-weight="900" text-anchor="middle">2</text><text x="136" y="502" fill="#F1EEE7" font-family="Arial, sans-serif" font-size="17" font-weight="800" text-anchor="start">Cracked tile</text><text x="136" y="530" fill="#A3A7A3" font-family="Arial, sans-serif" font-size="11" font-weight="500" text-anchor="start">Main roof south · tile cracked with gap</text><rect x="136" y="560" width="118" height="40" rx="8" fill="rgba(255,90,47,.12)" stroke="rgba(255,90,47,.38)"/><text x="195" y="586" fill="#FF9A7A" font-family="Arial, sans-serif" font-size="11" font-weight="800" text-anchor="middle">APPROVE</text><rect x="266" y="560" width="96" height="40" rx="8" fill="#101211" stroke="rgba(241,238,231,.10)"/><text x="314" y="586" fill="#F1EEE7" font-family="Arial, sans-serif" font-size="11" font-weight="700" text-anchor="middle">EDIT</text><rect x="374" y="560" width="110" height="40" rx="8" fill="rgba(217,80,80,.10)" stroke="rgba(217,80,80,.30)"/><text x="429" y="586" fill="#FF9A9A" font-family="Arial, sans-serif" font-size="11" font-weight="700" text-anchor="middle">REMOVE</text><rect x="66" y="650" width="636" height="166" rx="16" fill="#151817" stroke="rgba(241,238,231,.10)"/><circle cx="102" cy="688" r="18" fill="#FF5A2F"/><text x="102" y="694" fill="#0A0C0B" font-family="Arial, sans-serif" font-size="12" font-weight="900" text-anchor="middle">3</text><text x="136" y="692" fill="#F1EEE7" font-family="Arial, sans-serif" font-size="17" font-weight="800" text-anchor="start">Blocked gutter outlet</text><text x="136" y="720" fill="#A3A7A3" font-family="Arial, sans-serif" font-size="11" font-weight="500" text-anchor="start">Rear gutter · debris blocking outlet</text><rect x="136" y="750" width="118" height="40" rx="8" fill="rgba(255,90,47,.12)" stroke="rgba(255,90,47,.38)"/><text x="195" y="776" fill="#FF9A7A" font-family="Arial, sans-serif" font-size="11" font-weight="800" text-anchor="middle">APPROVE</text><rect x="266" y="750" width="96" height="40" rx="8" fill="#101211" stroke="rgba(241,238,231,.10)"/><text x="314" y="776" fill="#F1EEE7" font-family="Arial, sans-serif" font-size="11" font-weight="700" text-anchor="middle">EDIT</text><rect x="374" y="750" width="110" height="40" rx="8" fill="rgba(217,80,80,.10)" stroke="rgba(217,80,80,.30)"/><text x="429" y="776" fill="#FF9A9A" font-family="Arial, sans-serif" font-size="11" font-weight="700" text-anchor="middle">REMOVE</text><rect x="66" y="840" width="636" height="166" rx="16" fill="#151817" stroke="rgba(241,238,231,.10)"/><circle cx="102" cy="878" r="18" fill="#FF5A2F"/><text x="102" y="884" fill="#0A0C0B" font-family="Arial, sans-serif" font-size="12" font-weight="900" text-anchor="middle">4</text><text x="136" y="882" fill="#F1EEE7" font-family="Arial, sans-serif" font-size="17" font-weight="800" text-anchor="start">Flat roof wear</text><text x="136" y="910" fill="#A3A7A3" font-family="Arial, sans-serif" font-size="11" font-weight="500" text-anchor="start">Extension roof · signs of wear and ponding</text><rect x="136" y="940" width="118" height="40" rx="8" fill="rgba(255,90,47,.12)" stroke="rgba(255,90,47,.38)"/><text x="195" y="966" fill="#FF9A7A" font-family="Arial, sans-serif" font-size="11" font-weight="800" text-anchor="middle">APPROVE</text><rect x="266" y="940" width="96" height="40" rx="8" fill="#101211" stroke="rgba(241,238,231,.10)"/><text x="314" y="966" fill="#F1EEE7" font-family="Arial, sans-serif" font-size="11" font-weight="700" text-anchor="middle">EDIT</text><rect x="374" y="940" width="110" height="40" rx="8" fill="rgba(217,80,80,.10)" stroke="rgba(217,80,80,.30)"/><text x="429" y="966" fill="#FF9A9A" font-family="Arial, sans-serif" font-size="11" font-weight="700" text-anchor="middle">REMOVE</text><rect x="66" y="1030" width="636" height="166" rx="16" fill="#151817" stroke="rgba(241,238,231,.10)"/><circle cx="102" cy="1068" r="18" fill="#FF5A2F"/><text x="102" y="1074" fill="#0A0C0B" font-family="Arial, sans-serif" font-size="12" font-weight="900" text-anchor="middle">5</text><text x="136" y="1072" fill="#F1EEE7" font-family="Arial, sans-serif" font-size="17" font-weight="800" text-anchor="start">Chimney mortar</text><text x="136" y="1100" fill="#A3A7A3" font-family="Arial, sans-serif" font-size="11" font-weight="500" text-anchor="start">Mortar missing in sections</text><rect x="136" y="1130" width="118" height="40" rx="8" fill="rgba(255,90,47,.12)" stroke="rgba(255,90,47,.38)"/><text x="195" y="1156" fill="#FF9A7A" font-family="Arial, sans-serif" font-size="11" font-weight="800" text-anchor="middle">APPROVE</text><rect x="266" y="1130" width="96" height="40" rx="8" fill="#101211" stroke="rgba(241,238,231,.10)"/><text x="314" y="1156" fill="#F1EEE7" font-family="Arial, sans-serif" font-size="11" font-weight="700" text-anchor="middle">EDIT</text><rect x="374" y="1130" width="110" height="40" rx="8" fill="rgba(217,80,80,.10)" stroke="rgba(217,80,80,.30)"/><text x="429" y="1156" fill="#FF9A9A" font-family="Arial, sans-serif" font-size="11" font-weight="700" text-anchor="middle">REMOVE</text><rect x="66" y="1230" width="636" height="82" rx="14" fill="#FF5A2F" stroke="#FF5A2F"/><text x="384" y="1282" fill="#0A0C0B" font-family="Arial, sans-serif" font-size="16" font-weight="900" text-anchor="middle">APPROVE ALL 5 →</text><text x="384" y="1340" fill="#A3A7A3" font-family="Arial, sans-serif" font-size="12" font-weight="600" text-anchor="middle">Approved findings become the report and quotation context.</text>
 </svg>